<svg xmlns="http://www.w3.org/2000/svg" xmlns:xlink="http://www.w3.org/1999/xlink" width="100" zoomAndPan="magnify" viewBox="0 0 75 74.999997" height="100" preserveAspectRatio="xMidYMid meet" version="1.0"><defs><g/><clipPath id="807520d36c"><path d="M 37.5 0 C 16.789062 0 0 16.789062 0 37.5 C 0 58.210938 16.789062 75 37.5 75 C 58.210938 75 75 58.210938 75 37.5 C 75 16.789062 58.210938 0 37.5 0 Z M 37.5 0 " clip-rule="nonzero"/></clipPath><clipPath id="9720d4538b"><path d="M 0 0 L 75 0 L 75 75 L 0 75 Z M 0 0 " clip-rule="nonzero"/></clipPath><clipPath id="bedb12cd30"><path d="M 37.5 0 C 16.789062 0 0 16.789062 0 37.5 C 0 58.210938 16.789062 75 37.5 75 C 58.210938 75 75 58.210938 75 37.5 C 75 16.789062 58.210938 0 37.5 0 Z M 37.5 0 " clip-rule="nonzero"/></clipPath><clipPath id="8a47f69e4a"><rect x="0" width="75" y="0" height="75"/></clipPath><clipPath id="d0aff2b28c"><rect x="0" width="53" y="0" height="63"/></clipPath></defs><g clip-path="url(#807520d36c)"><g transform="matrix(1, 0, 0, 1, 0, -0.000000000000001893)"><g clip-path="url(#8a47f69e4a)"><g clip-path="url(#9720d4538b)"><g clip-path="url(#bedb12cd30)"><rect x="-16.5" width="108" fill="#ffffff" height="107.999996" y="-16.499999" fill-opacity="1"/></g></g></g></g></g><g transform="matrix(1, 0, 0, 1, 11, 6)"><g clip-path="url(#d0aff2b28c)"><g fill="#010307" fill-opacity="1"><g transform="translate(0.529837, 49.605398)"><g><path d="M 16.515625 0 L 6.4375 0 L 6.4375 -8.515625 L 16.109375 -8.515625 C 17.984375 -8.515625 19.566406 -8.816406 20.859375 -9.421875 C 22.160156 -10.035156 23.140625 -11.0625 23.796875 -12.5 C 24.453125 -13.945312 24.78125 -15.914062 24.78125 -18.40625 C 24.78125 -20.90625 24.441406 -22.875 23.765625 -24.3125 C 23.085938 -25.757812 22.082031 -26.789062 20.75 -27.40625 C 19.414062 -28.03125 17.769531 -28.34375 15.8125 -28.34375 L 6.28125 -28.34375 L 6.28125 -36.859375 L 16.375 -36.859375 C 20.164062 -36.859375 23.445312 -36.113281 26.21875 -34.625 C 28.988281 -33.144531 31.128906 -31.023438 32.640625 -28.265625 C 34.148438 -25.515625 34.90625 -22.226562 34.90625 -18.40625 C 34.90625 -14.59375 34.15625 -11.304688 32.65625 -8.546875 C 31.15625 -5.796875 29.03125 -3.679688 26.28125 -2.203125 C 23.53125 -0.734375 20.273438 0 16.515625 0 Z M 12.34375 -36.859375 L 12.34375 0 L 2.28125 0 L 2.28125 -36.859375 Z M 12.34375 -36.859375 "/></g></g></g><g fill="#010307" fill-opacity="1"><g transform="translate(34.778652, 49.605398)"><g><path d="M 8.859375 0.5625 C 7.398438 0.5625 6.179688 0.0820312 5.203125 -0.875 C 4.222656 -1.84375 3.734375 -3.046875 3.734375 -4.484375 C 3.734375 -5.910156 4.222656 -7.101562 5.203125 -8.0625 C 6.179688 -9.03125 7.398438 -9.515625 8.859375 -9.515625 C 10.285156 -9.515625 11.488281 -9.03125 12.46875 -8.0625 C 13.457031 -7.101562 13.953125 -5.910156 13.953125 -4.484375 C 13.953125 -3.046875 13.457031 -1.84375 12.46875 -0.875 C 11.488281 0.0820312 10.285156 0.5625 8.859375 0.5625 Z M 8.859375 0.5625 "/></g></g></g></g></g></svg>